<svg version="1.1" id="logo" xmlns="http://www.w3.org/2000/svg" x="0px" y="0px" viewBox="0 0 500 500" style="enable-background:new 0 0 500 500;" xml:space="preserve">
	<path id="st0" d="M269.2,291.8c0,0,4.8-19.3-26.5-32.5c0,0-14.5-19.3-36.2-22.9c0,0-74.7-15.7-86.8,32.5
		c-12.1,48.2-24.1,95.2,14.5,118.1s62.7,19.3,68.7,19.3c10.8,0,45.2-13.3,43.4-54.2C243.9,296.6,274,323.2,269.2,291.8z
		 M152.3,355.7c0,0-26.5-61.5-2.4-75.9c24.1-14.5,31.3,22.9,31.3,22.9s27.7-18.1,37.4,10.8C229.7,346.8,152.3,355.7,152.3,355.7z"
		/>
	<path id="st1" d="M142.6,226.7c-6,0-21.7-3.6-12.1-43.4c9.6-39.8,7.8-47.1,10.8-65.1c2.4-14.5,32.5-19.3,30.1-1.2
		c-2.4,18.1-10,32.5-9.6,42.2C163.1,196.6,157.1,226.7,142.6,226.7z"/>
	<path id="st2" d="M204.1,209.9c0,0-6-7.2-2.4-13.3c3.6-6-7.2-12.1,3.6-15.7c10.8-3.6,13.3,4.8,13.3,14.5
		S208.9,208.7,204.1,209.9z"/>
	<path id="st6" d="M218.6,168.9c-3.8-0.5,2.4-38.6,8.4-53c6-14.5,31.3-42.2,33.7,0C260.7,115.9,237.8,171.3,218.6,168.9z"/>
	<path id="st3" d="M247.5,225.5h18.1c0,0,24.1-15.7,20.5-30.1c-3.6-14.5,1.2-10.8,9.6-16.9c8.4-6,10.8-7.2,12.1-15.7
		c1.2-8.4,1.2-16.9,8.4-14.5c7.2,2.4,27.7-36.2,12.1-44.6c-15.7-8.4-36.2,16.9-37.4,32.5c-1.2,15.7-12.1,9.6-14.5,15.7
		c-2.4,6-3.6,12.1-3.6,18.1c0,6-27.7,20.5-26.5,28.9c1.2,8.4,4.8,2.4,1.2,8.4C243.9,213.5,247.5,225.5,247.5,225.5z"/>
	<path id="st4" d="M286.1,273.7c1.8,6.8,7.2,15.7,37.4-13.3c30.1-28.9,87.5-60.4,59.1-86.8c-16.9-15.7-36.2,32.5-49.4,44.6
		C319.8,230.4,276.4,236.4,286.1,273.7z"/>
	<path id="st5" d="M300.5,358.1c-3.6,7.2-2.4,22.9,9.6,24.1c12.1,1.2,31.3-2.4,42.2-13.3c10.8-10.8,24.5,9.1,19.3-14.5
		c-2.4-10.8-16.9-15.7-27.7-15.7c-10.8,0-15.7,10.8-22.9,13.3C313.8,354.5,300.5,358.1,300.5,358.1z"/>
</svg>
